<mxfile host="app.diagrams.net" modified="2024-03-26T19:47:54.504Z" agent="Mozilla/5.0 (Windows NT 10.0; Win64; x64) AppleWebKit/537.36 (KHTML, like Gecko) Chrome/121.0.0.0 Safari/537.36" etag="TwMCFU1l6SHmW2YAbhvh" version="24.2.0" type="device">
  <diagram name="Page-1" id="Cf7E5TTTrloypjkVeYG1">
    <mxGraphModel dx="1950" dy="683" grid="1" gridSize="10" guides="1" tooltips="1" connect="1" arrows="1" fold="1" page="1" pageScale="1" pageWidth="850" pageHeight="1100" math="0" shadow="0">
      <root>
        <mxCell id="0" />
        <mxCell id="1" parent="0" />
        <mxCell id="t6kp-nXmJAoZF-2iTOLA-1" value="HOME" style="rounded=1;whiteSpace=wrap;html=1;fillColor=#f9f7ed;strokeColor=#36393d;fontSize=19;fontStyle=1" parent="1" vertex="1">
          <mxGeometry x="-220" y="250" width="120" height="60" as="geometry" />
        </mxCell>
        <mxCell id="t6kp-nXmJAoZF-2iTOLA-2" value="" style="endArrow=none;html=1;rounded=0;exitX=0.5;exitY=1;exitDx=0;exitDy=0;" parent="1" source="t6kp-nXmJAoZF-2iTOLA-1" edge="1">
          <mxGeometry width="50" height="50" relative="1" as="geometry">
            <mxPoint x="-180" y="310" as="sourcePoint" />
            <mxPoint x="-160" y="360" as="targetPoint" />
          </mxGeometry>
        </mxCell>
        <mxCell id="t6kp-nXmJAoZF-2iTOLA-3" value="" style="endArrow=none;html=1;rounded=0;" parent="1" edge="1">
          <mxGeometry width="50" height="50" relative="1" as="geometry">
            <mxPoint x="-520" y="360" as="sourcePoint" />
            <mxPoint x="210" y="360" as="targetPoint" />
          </mxGeometry>
        </mxCell>
        <mxCell id="t6kp-nXmJAoZF-2iTOLA-4" value="" style="endArrow=none;html=1;rounded=0;" parent="1" edge="1">
          <mxGeometry width="50" height="50" relative="1" as="geometry">
            <mxPoint x="-520.4200000000001" y="360" as="sourcePoint" />
            <mxPoint x="-520.4200000000001" y="400" as="targetPoint" />
          </mxGeometry>
        </mxCell>
        <mxCell id="t6kp-nXmJAoZF-2iTOLA-5" value="RICETTE" style="rounded=1;whiteSpace=wrap;html=1;fillColor=#cdeb8b;strokeColor=#36393d;fontSize=19;fontStyle=1" parent="1" vertex="1">
          <mxGeometry x="-580" y="400" width="120" height="60" as="geometry" />
        </mxCell>
        <mxCell id="t6kp-nXmJAoZF-2iTOLA-6" value="STORE" style="rounded=1;whiteSpace=wrap;html=1;fillColor=#008a00;strokeColor=#005700;fontColor=#ffffff;fontSize=19;fontStyle=1" parent="1" vertex="1">
          <mxGeometry x="-220" y="400" width="120" height="60" as="geometry" />
        </mxCell>
        <mxCell id="t6kp-nXmJAoZF-2iTOLA-7" value="AZIENDA" style="rounded=1;whiteSpace=wrap;html=1;fillColor=#f0a30a;strokeColor=#BD7000;fontColor=#000000;fontSize=19;fontStyle=1" parent="1" vertex="1">
          <mxGeometry x="150" y="400" width="120" height="60" as="geometry" />
        </mxCell>
        <mxCell id="t6kp-nXmJAoZF-2iTOLA-8" value="" style="endArrow=none;html=1;rounded=0;exitX=0.5;exitY=0;exitDx=0;exitDy=0;" parent="1" source="t6kp-nXmJAoZF-2iTOLA-7" edge="1">
          <mxGeometry width="50" height="50" relative="1" as="geometry">
            <mxPoint x="30" y="410" as="sourcePoint" />
            <mxPoint x="210" y="360" as="targetPoint" />
          </mxGeometry>
        </mxCell>
        <mxCell id="t6kp-nXmJAoZF-2iTOLA-9" value="" style="endArrow=none;html=1;rounded=0;entryX=0.5;entryY=0;entryDx=0;entryDy=0;" parent="1" target="t6kp-nXmJAoZF-2iTOLA-6" edge="1">
          <mxGeometry width="50" height="50" relative="1" as="geometry">
            <mxPoint x="-160" y="360" as="sourcePoint" />
            <mxPoint x="-130" y="260" as="targetPoint" />
          </mxGeometry>
        </mxCell>
        <mxCell id="t6kp-nXmJAoZF-2iTOLA-10" value="" style="endArrow=none;html=1;rounded=0;" parent="1" edge="1">
          <mxGeometry width="50" height="50" relative="1" as="geometry">
            <mxPoint x="-520" y="520" as="sourcePoint" />
            <mxPoint x="-520" y="460" as="targetPoint" />
          </mxGeometry>
        </mxCell>
        <mxCell id="t6kp-nXmJAoZF-2iTOLA-11" value="" style="endArrow=none;html=1;rounded=0;" parent="1" edge="1">
          <mxGeometry width="50" height="50" relative="1" as="geometry">
            <mxPoint x="-660" y="500" as="sourcePoint" />
            <mxPoint x="-380" y="500" as="targetPoint" />
          </mxGeometry>
        </mxCell>
        <mxCell id="t6kp-nXmJAoZF-2iTOLA-14" value="" style="endArrow=none;html=1;rounded=0;" parent="1" edge="1">
          <mxGeometry width="50" height="50" relative="1" as="geometry">
            <mxPoint x="-660.22" y="530" as="sourcePoint" />
            <mxPoint x="-660.22" y="500" as="targetPoint" />
          </mxGeometry>
        </mxCell>
        <mxCell id="t6kp-nXmJAoZF-2iTOLA-15" value="" style="endArrow=none;html=1;rounded=0;" parent="1" edge="1">
          <mxGeometry width="50" height="50" relative="1" as="geometry">
            <mxPoint x="-520" y="530" as="sourcePoint" />
            <mxPoint x="-520.5" y="500" as="targetPoint" />
          </mxGeometry>
        </mxCell>
        <mxCell id="t6kp-nXmJAoZF-2iTOLA-16" value="" style="endArrow=none;html=1;rounded=0;" parent="1" edge="1">
          <mxGeometry width="50" height="50" relative="1" as="geometry">
            <mxPoint x="-380" y="530" as="sourcePoint" />
            <mxPoint x="-380" y="500" as="targetPoint" />
            <Array as="points" />
          </mxGeometry>
        </mxCell>
        <mxCell id="t6kp-nXmJAoZF-2iTOLA-17" value="Calabria" style="rounded=1;whiteSpace=wrap;html=1;fillColor=#ffcccc;strokeColor=#36393d;fontSize=24;" parent="1" vertex="1">
          <mxGeometry x="-720" y="520" width="120" height="60" as="geometry" />
        </mxCell>
        <mxCell id="t6kp-nXmJAoZF-2iTOLA-18" value="Campania" style="rounded=1;whiteSpace=wrap;html=1;fillColor=#cdeb8b;strokeColor=#36393d;fontSize=24;" parent="1" vertex="1">
          <mxGeometry x="-580" y="520" width="120" height="60" as="geometry" />
        </mxCell>
        <mxCell id="t6kp-nXmJAoZF-2iTOLA-19" value="Basilicata" style="rounded=1;whiteSpace=wrap;html=1;fillColor=#fff2cc;strokeColor=#d6b656;fontSize=24;" parent="1" vertex="1">
          <mxGeometry x="-450" y="520" width="120" height="60" as="geometry" />
        </mxCell>
        <mxCell id="t6kp-nXmJAoZF-2iTOLA-21" value="" style="endArrow=none;html=1;rounded=0;" parent="1" edge="1">
          <mxGeometry width="50" height="50" relative="1" as="geometry">
            <mxPoint x="-160" y="600" as="sourcePoint" />
            <mxPoint x="-160.42000000000002" y="460" as="targetPoint" />
          </mxGeometry>
        </mxCell>
        <mxCell id="t6kp-nXmJAoZF-2iTOLA-22" value="" style="endArrow=none;html=1;rounded=0;" parent="1" edge="1">
          <mxGeometry width="50" height="50" relative="1" as="geometry">
            <mxPoint x="-270" y="600" as="sourcePoint" />
            <mxPoint x="-50" y="600" as="targetPoint" />
          </mxGeometry>
        </mxCell>
        <mxCell id="t6kp-nXmJAoZF-2iTOLA-23" value="" style="endArrow=none;html=1;rounded=0;" parent="1" edge="1">
          <mxGeometry width="50" height="50" relative="1" as="geometry">
            <mxPoint x="-270" y="630" as="sourcePoint" />
            <mxPoint x="-270" y="600" as="targetPoint" />
            <Array as="points" />
          </mxGeometry>
        </mxCell>
        <mxCell id="t6kp-nXmJAoZF-2iTOLA-24" value="" style="endArrow=none;html=1;rounded=0;" parent="1" edge="1">
          <mxGeometry width="50" height="50" relative="1" as="geometry">
            <mxPoint x="-50" y="630" as="sourcePoint" />
            <mxPoint x="-50" y="600" as="targetPoint" />
            <Array as="points" />
          </mxGeometry>
        </mxCell>
        <mxCell id="t6kp-nXmJAoZF-2iTOLA-25" value="Cometici" style="rounded=1;whiteSpace=wrap;html=1;fillColor=#ffcc99;strokeColor=#36393d;fontSize=24;" parent="1" vertex="1">
          <mxGeometry x="-110" y="630" width="120" height="60" as="geometry" />
        </mxCell>
        <mxCell id="t6kp-nXmJAoZF-2iTOLA-26" value="Olio" style="rounded=1;whiteSpace=wrap;html=1;fillColor=#cdeb8b;strokeColor=#36393d;fontSize=24;" parent="1" vertex="1">
          <mxGeometry x="-330" y="630" width="120" height="60" as="geometry" />
        </mxCell>
        <mxCell id="t6kp-nXmJAoZF-2iTOLA-28" value="" style="endArrow=none;html=1;rounded=0;" parent="1" edge="1">
          <mxGeometry width="50" height="50" relative="1" as="geometry">
            <mxPoint x="90" y="490" as="sourcePoint" />
            <mxPoint x="310" y="490" as="targetPoint" />
          </mxGeometry>
        </mxCell>
        <mxCell id="t6kp-nXmJAoZF-2iTOLA-29" value="" style="endArrow=none;html=1;rounded=0;" parent="1" edge="1">
          <mxGeometry width="50" height="50" relative="1" as="geometry">
            <mxPoint x="90" y="520" as="sourcePoint" />
            <mxPoint x="90" y="490" as="targetPoint" />
            <Array as="points" />
          </mxGeometry>
        </mxCell>
        <mxCell id="t6kp-nXmJAoZF-2iTOLA-30" value="" style="endArrow=none;html=1;rounded=0;" parent="1" edge="1">
          <mxGeometry width="50" height="50" relative="1" as="geometry">
            <mxPoint x="310" y="520" as="sourcePoint" />
            <mxPoint x="310" y="490" as="targetPoint" />
            <Array as="points" />
          </mxGeometry>
        </mxCell>
        <mxCell id="t6kp-nXmJAoZF-2iTOLA-31" value="Contatti" style="rounded=1;whiteSpace=wrap;html=1;fillColor=#cdeb8b;strokeColor=#36393d;fontSize=24;" parent="1" vertex="1">
          <mxGeometry x="250" y="520" width="120" height="60" as="geometry" />
        </mxCell>
        <mxCell id="t6kp-nXmJAoZF-2iTOLA-32" value="Storia" style="rounded=1;whiteSpace=wrap;html=1;fillColor=#ffcc99;strokeColor=#36393d;fontSize=24;" parent="1" vertex="1">
          <mxGeometry x="30" y="520" width="120" height="60" as="geometry" />
        </mxCell>
        <mxCell id="t6kp-nXmJAoZF-2iTOLA-38" value="" style="endArrow=none;html=1;rounded=0;entryX=0.5;entryY=1;entryDx=0;entryDy=0;" parent="1" target="t6kp-nXmJAoZF-2iTOLA-7" edge="1">
          <mxGeometry width="50" height="50" relative="1" as="geometry">
            <mxPoint x="210" y="490" as="sourcePoint" />
            <mxPoint x="-110" y="410" as="targetPoint" />
          </mxGeometry>
        </mxCell>
      </root>
    </mxGraphModel>
  </diagram>
</mxfile>
